<svg viewBox="0 0 520 420" fill="none" xmlns="http://www.w3.org/2000/svg">
  <defs>
    <linearGradient id="techGrad" x1="0" y1="0" x2="1" y2="1">
      <stop offset="0%" stop-color="#38bdf8"/>
      <stop offset="100%" stop-color="#a78bfa"/>
    </linearGradient>
    <filter id="glow" x="-20%" y="-20%" width="140%" height="140%">
      <feGaussianBlur stdDeviation="8" result="blur"/>
      <feMerge>
        <feMergeNode in="blur"/>
        <feMergeNode in="SourceGraphic"/>
      </feMerge>
    </filter>
  </defs>
  <rect x="20" y="60" width="480" height="280" rx="40" fill="#020617" stroke="url(#techGrad)" stroke-width="4" filter="url(#glow)"/>
  <rect x="60" y="100" width="180" height="100" rx="24" fill="#0f172a" stroke="#334155" stroke-width="2"/>
  <rect x="280" y="100" width="160" height="100" rx="24" fill="#0f172a" stroke="#334155" stroke-width="2"/>
  <rect x="64" y="106" width="44" height="16" rx="8" fill="#38bdf8"/>
  <rect x="280" y="106" width="44" height="16" rx="8" fill="#a78bfa"/>
  <rect x="64" y="132" width="120" height="16" rx="8" fill="#64748b"/>
  <rect x="280" y="132" width="88" height="16" rx="8" fill="#64748b"/>
  <line x1="160" y1="180" x2="200" y2="180" stroke="#38bdf8" stroke-width="4" stroke-linecap="round"/>
  <circle cx="210" cy="180" r="10" fill="#38bdf8"/>
  <path d="M300 240H340" stroke="#a78bfa" stroke-width="4" stroke-linecap="round"/>
  <path d="M320 220V260" stroke="#a78bfa" stroke-width="4" stroke-linecap="round"/>
  <circle cx="360" cy="260" r="12" fill="#6366f1" opacity="0.9"/>
  <circle cx="420" cy="220" r="16" fill="#0ea5e9" opacity="0.9"/>
  <path d="M120 260C140 240 180 240 200 260" stroke="#38bdf8" stroke-width="5" stroke-linecap="round" fill="none"/>
  <path d="M190 265L210 280" stroke="#a78bfa" stroke-width="5" stroke-linecap="round"/>
  <path d="M240 210C260 190 300 190 320 210" stroke="#a78bfa" stroke-width="5" stroke-linecap="round" fill="none"/>
  <path d="M100 310H420" stroke="#334155" stroke-width="8" stroke-linecap="round"/>
  <circle cx="140" cy="310" r="10" fill="#38bdf8"/>
  <circle cx="180" cy="310" r="10" fill="#a78bfa"/>
  <circle cx="220" cy="310" r="10" fill="#38bdf8"/>
</svg>
